<?xml version="1.0" encoding="UTF-8"?><svg id="Layer_1" xmlns="http://www.w3.org/2000/svg" width="1947.923" height="704.5132" viewBox="0 0 1947.923 704.5132"><defs><style>.cls-1{fill:#2d7551;stroke-width:0px;}</style></defs><path class="cls-1" d="M1940.3701,702.2609h-.1959c-.5299,5.0486.1959,0,.1959,0Z"/><path class="cls-1" d="M1941.9153,354.1095c-6.6958-8.756-27.2981-35.7108-27.2981-35.7108,0,0-50.39-90.6505-58.8026-108.3341-8.4127-17.6837-6.4382-51.2484-6.4382-51.2484,15.2802,0,16.4818-3.5195,16.5677-6.7816.0858-3.262-3.4338-3.4337-10.5587-5.3223-7.125-1.8885-6.4384-5.4081-6.4384-5.4081,0,0,10.3871.2576,10.6447-3.8629.2574-4.1205-4.0347-53.3945-5.3223-63.8673-1.2877-10.4729-22.8344-11.0738-62.5797-11.0738s-70.4773-2.2319-73.2242,9.9578c-2.7469,12.1897-6.1735,62.6942-6.1735,65.2909s12.4329,3.3693,12.4329,3.3693c0,3.2048-5.6656,5.7801-5.6656,5.7801-12.7047.744-11.3885,6.1807-11.3885,6.1807,0,7.7259,18.0271,6.6672,18.0271,6.6672,0,36.283-6.5242,50.5902-6.5242,50.5902,0,0-45.3252,86.0721-49.7889,93.5119-4.4639,7.4397-13.3915,23.5782-23.3494,35.024-9.9579,11.4457-18.6566,23.1204-18.6566,37.0843,0,.328.0066.6543.0133.9805-7.0558-10.5621-15.0653-22.3585-15.0653-33.8871,0,0,10.1296-3.2621,0-11.8464l-220.2163-.5151c-9.0708,9.0707,0,13.3343,0,13.3343,0,22.6626-25.7529,37.0843-25.7529,57.6866v74.8779c-1.8621-5.27-3.8694-10.7386-5.9341-16.9623-28.4135-85.6464-61.6641-291.5234-61.6641-321.0249,0-6.009,4.8931-7.0391,5.6271-12.1039.734-5.0648-5.1979-23.5211-7.1722-30.9036-1.9744-7.3825-.9442-6.9103-.9442-6.9103,5.7086-.1717,7.8546-2.8328,7.8546-2.8328,2.4036-23.8644-12.5331-26.9548-12.5331-26.9548,0,0-18.7137-3.6054-49.1449-3.6054s-43.9092,3.6054-43.9092,3.6054c0,0-11.5029,3.7771-11.5029,14.765s.5151,13.2198.5151,13.2198l7.8975,2.0602-9.0421,35.9397s-.9156,3.6626,3.2048,6.6385c4.1205,2.9759,1.3734,24.8373,1.1447,34.1083-.229,9.2711-45.2681,269.3187-60.7198,300.7373-.3595.7309-.702,1.4719-1.045,2.2126-1.0055-2.8391-2.0367-5.7968-3.0833-8.9513-28.4136-85.6464-61.6641-291.5234-61.6641-321.0249,0-6.009,4.8931-7.0391,5.6271-12.1039.734-5.0648-5.1979-23.5211-7.1722-30.9036-1.9744-7.3825-.9443-6.9103-.9443-6.9103,5.7087-.1717,7.8547-2.8328,7.8547-2.8328,2.4036-23.8644-12.5331-26.9548-12.5331-26.9548,0,0-18.7139-3.6054-49.1448-3.6054s-43.9092,3.6054-43.9092,3.6054c0,0-11.503,3.7771-11.503,14.765s.515,13.2198.515,13.2198l7.8976,2.0602-9.0421,35.9397s-.9156,3.6626,3.2048,6.6385c4.1205,2.9759,1.3735,24.8373,1.1446,34.1083-.2205,8.9329-42.041,250.6747-58.9135,296.4019.0177-31.9915-.0113-54.181-.0113-54.181l-1.2018-.8585s-1.2018-3.9488,3.0904-12.5331c4.2921-8.5844,3.262-31.5903-3.4338-40.3463-6.6957-8.756-27.2981-35.7108-27.2981-35.7108,0,0-50.39-90.6505-58.8026-108.3341-8.4126-17.6837-6.4382-51.2484-6.4382-51.2484,15.2801,0,16.4819-3.5195,16.5677-6.7816.0858-3.262-3.4337-3.4337-10.5587-5.3223s-6.4382-5.4081-6.4382-5.4081c0,0,10.387.2576,10.6445-3.8629.2576-4.1205-4.0346-53.3945-5.3223-63.8673-1.2877-10.4729-22.8343-11.0738-62.5797-11.0738s-70.4772-2.2319-73.2242,9.9578c-2.747,12.1897-6.1736,62.6942-6.1736,65.2909s12.433,3.3693,12.433,3.3693c0,3.2048-5.6656,5.7801-5.6656,5.7801-12.7048.744-11.3885,6.1807-11.3885,6.1807,0,7.7259,18.027,6.6672,18.027,6.6672,0,36.283-6.524,50.5902-6.524,50.5902,0,0-45.3252,86.0721-49.7891,93.5119-4.4639,7.4397-13.3915,23.5782-23.3494,35.024-9.9578,11.4457-18.6566,23.1204-18.6566,37.0843,0,.328.0067.6543.0133.9805-7.0557-10.5621-15.0652-22.3585-15.0652-33.8871,0,0,10.1295-3.2621,0-11.8464l-220.2164-.5151c-9.0707,9.0707,0,13.3343,0,13.3343,0,22.6626-25.7529,37.0843-25.7529,57.6866v125.1021c0-93.2256-62.7228-167.4514-84.3552-189.0839-21.6325-21.6324-21.0459-281.8375-21.0459-281.8375l4.8501-3.9059v-28.3712l-3.8486-4.9503c0-12.9623-1.631-13.9924-1.631-13.9924,0,0,2.1747-4.6705-53.7951-4.6705s-55.3975,5.0425-55.3975,5.0425l-.3434,13.3915-4.3494,5.6084.5151,28.9006,5.637,1.8027v1.9744c0,149.0237-6.1807,259.5898-24.7228,287.0596C63.1806,371.2495,0,407.647,0,534.6949v167.566h891.1937c.1307,1.4528.2033,2.2523.2033,2.2523h473.8336l1.1268-14.4171v12.1648h573.8168c.1984-1.8898.5714-5.1842,1.226-10.7019,2.4037-20.259,2.0603-283.7117,2.0603-283.7117l-1.2018-.8585s-1.2018-3.9488,3.0903-12.5331c4.2921-8.5844,3.2621-31.5903-3.4337-40.3463Z"/></svg>